<?xml version="1.0" encoding="utf-8" standalone="no"?>
<!DOCTYPE svg PUBLIC "-//W3C//DTD SVG 1.1//EN"
  "http://www.w3.org/Graphics/SVG/1.1/DTD/svg11.dtd">
<svg xmlns:xlink="http://www.w3.org/1999/xlink" width="864pt" height="432pt" viewBox="0 0 864 432" xmlns="http://www.w3.org/2000/svg" version="1.1">
 <metadata>
  <rdf:RDF xmlns:dc="http://purl.org/dc/elements/1.1/" xmlns:cc="http://creativecommons.org/ns#" xmlns:rdf="http://www.w3.org/1999/02/22-rdf-syntax-ns#">
   <cc:Work>
    <dc:type rdf:resource="http://purl.org/dc/dcmitype/StillImage"/>
    <dc:date>2026-01-04T15:20:54.659956</dc:date>
    <dc:format>image/svg+xml</dc:format>
    <dc:creator>
     <cc:Agent>
      <dc:title>Matplotlib v3.10.8, https://matplotlib.org/</dc:title>
     </cc:Agent>
    </dc:creator>
   </cc:Work>
  </rdf:RDF>
 </metadata>
 <defs>
  <style type="text/css">*{stroke-linejoin: round; stroke-linecap: butt}</style>
 </defs>
 <g id="figure_1">
  <g id="patch_1">
   <path d="M 0 432 
L 864 432 
L 864 0 
L 0 0 
z
" style="fill: #ffffff"/>
  </g>
  <g id="axes_1">
   <g id="patch_2">
    <path d="M 63.47 201.31 
L 853.2 201.31 
L 853.2 26.88 
L 63.47 26.88 
z
" style="fill: #ffffff"/>
   </g>
   <g id="patch_3">
    <path d="M 99.366818 201.31 
L 112.456822 201.31 
L 112.456822 26.88 
L 99.366818 26.88 
z
" clip-path="url(#p8bcc71c832)" style="fill: #4c78a8; opacity: 0.08"/>
   </g>
   <g id="patch_4">
    <path d="M 112.456822 201.31 
L 460.852308 201.31 
L 460.852308 26.88 
L 112.456822 26.88 
z
" clip-path="url(#p8bcc71c832)" style="fill: #f58518; opacity: 0.08"/>
   </g>
   <g id="patch_5">
    <path d="M 460.852308 201.31 
L 817.303182 201.31 
L 817.303182 26.88 
L 460.852308 26.88 
z
" clip-path="url(#p8bcc71c832)" style="fill: #54a24b; opacity: 0.08"/>
   </g>
   <g id="matplotlib.axis_1">
    <g id="xtick_1">
     <g id="line2d_1">
      <defs>
       <path id="mebbd272c43" d="M 0 0 
L 0 3.5 
" style="stroke: #000000; stroke-width: 0.8"/>
      </defs>
      <g>
       <use xlink:href="#mebbd272c43" x="99.366818" y="201.31" style="stroke: #000000; stroke-width: 0.8"/>
      </g>
     </g>
    </g>
    <g id="xtick_2">
     <g id="line2d_2">
      <g>
       <use xlink:href="#mebbd272c43" x="282.626872" y="201.31" style="stroke: #000000; stroke-width: 0.8"/>
      </g>
     </g>
    </g>
    <g id="xtick_3">
     <g id="line2d_3">
      <g>
       <use xlink:href="#mebbd272c43" x="467.900772" y="201.31" style="stroke: #000000; stroke-width: 0.8"/>
      </g>
     </g>
    </g>
    <g id="xtick_4">
     <g id="line2d_4">
      <g>
       <use xlink:href="#mebbd272c43" x="650.153902" y="201.31" style="stroke: #000000; stroke-width: 0.8"/>
      </g>
     </g>
    </g>
    <g id="xtick_5">
     <g id="line2d_5">
      <g>
       <use xlink:href="#mebbd272c43" x="835.427802" y="201.31" style="stroke: #000000; stroke-width: 0.8"/>
      </g>
     </g>
    </g>
   </g>
   <g id="matplotlib.axis_2">
    <g id="ytick_1">
     <g id="line2d_6">
      <defs>
       <path id="m46438e2cc1" d="M 0 0 
L -3.5 0 
" style="stroke: #000000; stroke-width: 0.8"/>
      </defs>
      <g>
       <use xlink:href="#m46438e2cc1" x="63.47" y="193.422542" style="stroke: #000000; stroke-width: 0.8"/>
      </g>
     </g>
     <g id="text_1">
      <!-- 0 -->
      <g transform="translate(50.1075 197.22176) scale(0.1 -0.1)">
       <defs>
        <path id="DejaVuSans-30" d="M 2034 4250 
Q 1547 4250 1301 3770 
Q 1056 3291 1056 2328 
Q 1056 1369 1301 889 
Q 1547 409 2034 409 
Q 2525 409 2770 889 
Q 3016 1369 3016 2328 
Q 3016 3291 2770 3770 
Q 2525 4250 2034 4250 
z
M 2034 4750 
Q 2819 4750 3233 4129 
Q 3647 3509 3647 2328 
Q 3647 1150 3233 529 
Q 2819 -91 2034 -91 
Q 1250 -91 836 529 
Q 422 1150 422 2328 
Q 422 3509 836 4129 
Q 1250 4750 2034 4750 
z
" transform="scale(0.015625)"/>
       </defs>
       <use xlink:href="#DejaVuSans-30"/>
      </g>
     </g>
    </g>
    <g id="ytick_2">
     <g id="line2d_7">
      <g>
       <use xlink:href="#m46438e2cc1" x="63.47" y="167.425397" style="stroke: #000000; stroke-width: 0.8"/>
      </g>
     </g>
     <g id="text_2">
      <!-- 2500 -->
      <g transform="translate(31.02 171.224615) scale(0.1 -0.1)">
       <defs>
        <path id="DejaVuSans-32" d="M 1228 531 
L 3431 531 
L 3431 0 
L 469 0 
L 469 531 
Q 828 903 1448 1529 
Q 2069 2156 2228 2338 
Q 2531 2678 2651 2914 
Q 2772 3150 2772 3378 
Q 2772 3750 2511 3984 
Q 2250 4219 1831 4219 
Q 1534 4219 1204 4116 
Q 875 4013 500 3803 
L 500 4441 
Q 881 4594 1212 4672 
Q 1544 4750 1819 4750 
Q 2544 4750 2975 4387 
Q 3406 4025 3406 3419 
Q 3406 3131 3298 2873 
Q 3191 2616 2906 2266 
Q 2828 2175 2409 1742 
Q 1991 1309 1228 531 
z
" transform="scale(0.015625)"/>
        <path id="DejaVuSans-35" d="M 691 4666 
L 3169 4666 
L 3169 4134 
L 1269 4134 
L 1269 2991 
Q 1406 3038 1543 3061 
Q 1681 3084 1819 3084 
Q 2600 3084 3056 2656 
Q 3513 2228 3513 1497 
Q 3513 744 3044 326 
Q 2575 -91 1722 -91 
Q 1428 -91 1123 -41 
Q 819 9 494 109 
L 494 744 
Q 775 591 1075 516 
Q 1375 441 1709 441 
Q 2250 441 2565 725 
Q 2881 1009 2881 1497 
Q 2881 1984 2565 2268 
Q 2250 2553 1709 2553 
Q 1456 2553 1204 2497 
Q 953 2441 691 2322 
L 691 4666 
z
" transform="scale(0.015625)"/>
       </defs>
       <use xlink:href="#DejaVuSans-32"/>
       <use xlink:href="#DejaVuSans-35" transform="translate(63.623047 0)"/>
       <use xlink:href="#DejaVuSans-30" transform="translate(127.246094 0)"/>
       <use xlink:href="#DejaVuSans-30" transform="translate(190.869141 0)"/>
      </g>
     </g>
    </g>
    <g id="ytick_3">
     <g id="line2d_8">
      <g>
       <use xlink:href="#m46438e2cc1" x="63.47" y="141.428251" style="stroke: #000000; stroke-width: 0.8"/>
      </g>
     </g>
     <g id="text_3">
      <!-- 5000 -->
      <g transform="translate(31.02 145.22747) scale(0.1 -0.1)">
       <use xlink:href="#DejaVuSans-35"/>
       <use xlink:href="#DejaVuSans-30" transform="translate(63.623047 0)"/>
       <use xlink:href="#DejaVuSans-30" transform="translate(127.246094 0)"/>
       <use xlink:href="#DejaVuSans-30" transform="translate(190.869141 0)"/>
      </g>
     </g>
    </g>
    <g id="ytick_4">
     <g id="line2d_9">
      <g>
       <use xlink:href="#m46438e2cc1" x="63.47" y="115.431106" style="stroke: #000000; stroke-width: 0.8"/>
      </g>
     </g>
     <g id="text_4">
      <!-- 7500 -->
      <g transform="translate(31.02 119.230325) scale(0.1 -0.1)">
       <defs>
        <path id="DejaVuSans-37" d="M 525 4666 
L 3525 4666 
L 3525 4397 
L 1831 0 
L 1172 0 
L 2766 4134 
L 525 4134 
L 525 4666 
z
" transform="scale(0.015625)"/>
       </defs>
       <use xlink:href="#DejaVuSans-37"/>
       <use xlink:href="#DejaVuSans-35" transform="translate(63.623047 0)"/>
       <use xlink:href="#DejaVuSans-30" transform="translate(127.246094 0)"/>
       <use xlink:href="#DejaVuSans-30" transform="translate(190.869141 0)"/>
      </g>
     </g>
    </g>
    <g id="ytick_5">
     <g id="line2d_10">
      <g>
       <use xlink:href="#m46438e2cc1" x="63.47" y="89.433961" style="stroke: #000000; stroke-width: 0.8"/>
      </g>
     </g>
     <g id="text_5">
      <!-- 10000 -->
      <g transform="translate(24.6575 93.23318) scale(0.1 -0.1)">
       <defs>
        <path id="DejaVuSans-31" d="M 794 531 
L 1825 531 
L 1825 4091 
L 703 3866 
L 703 4441 
L 1819 4666 
L 2450 4666 
L 2450 531 
L 3481 531 
L 3481 0 
L 794 0 
L 794 531 
z
" transform="scale(0.015625)"/>
       </defs>
       <use xlink:href="#DejaVuSans-31"/>
       <use xlink:href="#DejaVuSans-30" transform="translate(63.623047 0)"/>
       <use xlink:href="#DejaVuSans-30" transform="translate(127.246094 0)"/>
       <use xlink:href="#DejaVuSans-30" transform="translate(190.869141 0)"/>
       <use xlink:href="#DejaVuSans-30" transform="translate(254.492188 0)"/>
      </g>
     </g>
    </g>
    <g id="ytick_6">
     <g id="line2d_11">
      <g>
       <use xlink:href="#m46438e2cc1" x="63.47" y="63.436816" style="stroke: #000000; stroke-width: 0.8"/>
      </g>
     </g>
     <g id="text_6">
      <!-- 12500 -->
      <g transform="translate(24.6575 67.236035) scale(0.1 -0.1)">
       <use xlink:href="#DejaVuSans-31"/>
       <use xlink:href="#DejaVuSans-32" transform="translate(63.623047 0)"/>
       <use xlink:href="#DejaVuSans-35" transform="translate(127.246094 0)"/>
       <use xlink:href="#DejaVuSans-30" transform="translate(190.869141 0)"/>
       <use xlink:href="#DejaVuSans-30" transform="translate(254.492188 0)"/>
      </g>
     </g>
    </g>
    <g id="ytick_7">
     <g id="line2d_12">
      <g>
       <use xlink:href="#m46438e2cc1" x="63.47" y="37.439671" style="stroke: #000000; stroke-width: 0.8"/>
      </g>
     </g>
     <g id="text_7">
      <!-- 15000 -->
      <g transform="translate(24.6575 41.23889) scale(0.1 -0.1)">
       <use xlink:href="#DejaVuSans-31"/>
       <use xlink:href="#DejaVuSans-35" transform="translate(63.623047 0)"/>
       <use xlink:href="#DejaVuSans-30" transform="translate(127.246094 0)"/>
       <use xlink:href="#DejaVuSans-30" transform="translate(190.869141 0)"/>
       <use xlink:href="#DejaVuSans-30" transform="translate(254.492188 0)"/>
      </g>
     </g>
    </g>
    <g id="text_8">
     <!-- rho -->
     <g transform="translate(18.577813 122.291094) rotate(-90) scale(0.1 -0.1)">
      <defs>
       <path id="DejaVuSans-72" d="M 2631 2963 
Q 2534 3019 2420 3045 
Q 2306 3072 2169 3072 
Q 1681 3072 1420 2755 
Q 1159 2438 1159 1844 
L 1159 0 
L 581 0 
L 581 3500 
L 1159 3500 
L 1159 2956 
Q 1341 3275 1631 3429 
Q 1922 3584 2338 3584 
Q 2397 3584 2469 3576 
Q 2541 3569 2628 3553 
L 2631 2963 
z
" transform="scale(0.015625)"/>
       <path id="DejaVuSans-68" d="M 3513 2113 
L 3513 0 
L 2938 0 
L 2938 2094 
Q 2938 2591 2744 2837 
Q 2550 3084 2163 3084 
Q 1697 3084 1428 2787 
Q 1159 2491 1159 1978 
L 1159 0 
L 581 0 
L 581 4863 
L 1159 4863 
L 1159 2956 
Q 1366 3272 1645 3428 
Q 1925 3584 2291 3584 
Q 2894 3584 3203 3211 
Q 3513 2838 3513 2113 
z
" transform="scale(0.015625)"/>
       <path id="DejaVuSans-6f" d="M 1959 3097 
Q 1497 3097 1228 2736 
Q 959 2375 959 1747 
Q 959 1119 1226 758 
Q 1494 397 1959 397 
Q 2419 397 2687 759 
Q 2956 1122 2956 1747 
Q 2956 2369 2687 2733 
Q 2419 3097 1959 3097 
z
M 1959 3584 
Q 2709 3584 3137 3096 
Q 3566 2609 3566 1747 
Q 3566 888 3137 398 
Q 2709 -91 1959 -91 
Q 1206 -91 779 398 
Q 353 888 353 1747 
Q 353 2609 779 3096 
Q 1206 3584 1959 3584 
z
" transform="scale(0.015625)"/>
      </defs>
      <use xlink:href="#DejaVuSans-72"/>
      <use xlink:href="#DejaVuSans-68" transform="translate(39.363281 0)"/>
      <use xlink:href="#DejaVuSans-6f" transform="translate(102.742188 0)"/>
     </g>
    </g>
   </g>
   <g id="line2d_13">
    <path d="M 112.456822 147.827349 
L 114.470669 142.914214 
L 116.484515 134.457371 
L 117.491439 131.95758 
L 118.498362 127.354917 
L 119.505286 123.585977 
L 120.512209 120.534498 
L 121.519132 120.329847 
L 122.526056 115.166792 
L 123.532979 108.617007 
L 124.539902 104.80259 
L 125.546826 96.931009 
L 126.553749 96.458178 
L 127.560673 104.540464 
L 128.567596 114.985084 
L 129.574519 120.166508 
L 130.581443 123.270791 
L 131.588366 124.858916 
L 132.595289 127.845582 
L 133.602213 134.452573 
L 134.609136 134.452573 
L 135.61606 136.875649 
L 136.622983 138.798358 
L 137.629906 141.757664 
L 138.63683 143.635328 
L 140.650676 143.635328 
L 141.6576 143.422195 
L 143.671447 143.422195 
L 144.67837 142.077306 
L 145.685293 139.944866 
L 146.692217 140.775385 
L 147.69914 139.944866 
L 148.706063 142.376288 
L 149.712987 141.157259 
L 150.71991 141.157259 
L 151.726833 140.241274 
L 153.74068 140.241274 
L 154.747604 138.866899 
L 155.754527 138.913122 
L 156.76145 139.806556 
L 157.768374 140.415675 
L 158.775297 140.415675 
L 159.78222 139.321017 
L 160.789144 139.321017 
L 161.796067 138.46295 
L 162.802991 139.530043 
L 164.816837 139.530043 
L 165.823761 139.652218 
L 166.830684 138.960808 
L 167.837607 138.960808 
L 168.844531 137.287857 
L 170.858378 137.394602 
L 171.865301 139.876258 
L 172.872224 140.999061 
L 173.879148 143.159297 
L 175.892994 135.626591 
L 177.906841 140.893042 
L 179.920688 140.893042 
L 180.927611 143.334546 
L 181.934535 138.993512 
L 182.941458 138.993512 
L 183.948381 137.931431 
L 184.955305 137.882378 
L 185.962228 136.790945 
L 190.996845 136.790945 
L 192.003768 132.584943 
L 193.010692 132.584943 
L 194.017615 128.942389 
L 195.024538 129.811593 
L 196.031462 132.34285 
L 197.038385 134.552368 
L 198.045309 135.74141 
L 199.052232 136.291134 
L 200.059155 134.525033 
L 201.066079 122.484541 
L 202.073002 120.024755 
L 203.079925 101.911333 
L 204.086849 88.875634 
L 205.093772 88.875634 
L 206.100696 101.911333 
L 208.114542 101.911333 
L 209.121466 102.500064 
L 211.135312 102.500064 
L 212.142236 87.508002 
L 214.156082 122.25998 
L 215.163006 120.742997 
L 216.169929 131.173285 
L 217.176853 133.091806 
L 218.183776 135.97713 
L 219.190699 137.176143 
L 220.197623 135.025496 
L 221.204546 132.242495 
L 222.211469 122.675464 
L 223.218393 102.53663 
L 224.225316 91.661116 
L 226.239163 91.661116 
L 227.246086 93.674224 
L 228.25301 91.781306 
L 229.259933 95.335265 
L 233.287627 95.335265 
L 234.29455 96.719479 
L 235.301473 96.719479 
L 236.308397 95.673627 
L 237.31532 100.842332 
L 238.322243 106.722472 
L 239.329167 105.541581 
L 240.33609 105.541581 
L 241.343014 113.088743 
L 242.349937 114.327905 
L 243.35686 114.327905 
L 244.363784 116.062045 
L 246.37763 116.062045 
L 247.384554 120.498176 
L 248.391477 118.212341 
L 250.405324 118.212341 
L 251.412247 113.637158 
L 252.419171 113.637158 
L 253.426094 115.750686 
L 254.433017 115.750686 
L 256.446864 101.709341 
L 257.453787 98.274003 
L 258.460711 96.351072 
L 260.474558 96.351072 
L 261.481481 95.781544 
L 262.488404 97.715757 
L 263.495328 101.843938 
L 264.502251 102.378105 
L 265.509174 104.82989 
L 268.529945 104.82989 
L 269.536868 113.153574 
L 270.543791 116.929652 
L 273.564561 116.929652 
L 274.571485 115.494585 
L 276.585332 115.494585 
L 277.592255 116.929652 
L 278.599178 115.227806 
L 279.606102 112.217613 
L 280.613025 112.217613 
L 281.619948 107.721031 
L 282.626872 107.721031 
L 283.633795 96.574229 
L 284.640718 96.574229 
L 285.647642 102.927343 
L 286.654565 107.126492 
L 287.661489 101.132629 
L 291.689182 101.132629 
L 292.696105 106.238513 
L 293.703029 117.989099 
L 294.709952 117.825162 
L 295.716876 102.983804 
L 296.723799 102.983804 
L 297.730722 99.793662 
L 298.737646 90.539895 
L 299.744569 75.555985 
L 300.751492 80.065742 
L 301.758416 81.82233 
L 302.765339 79.069356 
L 303.772263 79.069356 
L 304.779186 77.972082 
L 305.786109 77.972082 
L 306.793033 75.466195 
L 307.799956 75.466195 
L 308.806879 74.231926 
L 309.813803 76.706331 
L 310.820726 76.706331 
L 311.827649 74.352807 
L 312.834573 73.358136 
L 313.841496 73.0818 
L 319.883036 73.0818 
L 320.88996 67.811601 
L 321.896883 58.280665 
L 322.903807 52.782056 
L 323.91073 58.280665 
L 324.917653 58.280665 
L 325.924577 58.939906 
L 326.9315 65.196591 
L 327.938423 65.196591 
L 328.945347 59.609287 
L 333.979964 59.609287 
L 334.986887 64.730158 
L 335.99381 65.282829 
L 337.000734 70.633236 
L 339.014581 70.633236 
L 340.021504 70.949485 
L 341.028427 65.599078 
L 342.035351 66.108963 
L 343.042274 65.767563 
L 344.049197 58.372365 
L 345.056121 39.699977 
L 346.063044 64.086796 
L 347.069967 48.56284 
L 349.083814 48.56284 
L 350.090738 34.808636 
L 354.118431 34.808636 
L 355.125354 40.841598 
L 356.132278 51.728203 
L 357.139201 48.593847 
L 359.153048 79.290269 
L 360.159971 75.225678 
L 361.166895 81.927542 
L 362.173818 91.214071 
L 363.180741 91.214071 
L 364.187665 94.823443 
L 367.208435 94.823443 
L 368.215358 96.637628 
L 370.229205 103.212436 
L 371.236128 110.186962 
L 374.256899 110.186962 
L 375.263822 111.244985 
L 376.270745 111.141307 
L 377.277669 114.030633 
L 382.312285 114.030633 
L 383.319209 115.252729 
L 385.333056 109.610471 
L 386.339979 111.040506 
L 388.353826 113.019558 
L 389.360749 118.480896 
L 390.367672 122.359963 
L 391.374596 119.299558 
L 392.381519 119.440889 
L 393.388443 128.724596 
L 394.395366 130.863775 
L 395.402289 130.54706 
L 397.416136 130.54706 
L 398.423059 133.488313 
L 399.429983 131.43888 
L 400.436906 131.43888 
L 401.44383 131.654449 
L 402.450753 132.69786 
L 403.457676 139.34294 
L 404.4646 140.808185 
L 405.471523 138.016624 
L 406.478446 140.064154 
L 407.48537 138.94379 
L 408.492293 135.870548 
L 409.499216 137.054114 
L 410.50614 146.260207 
L 411.513063 148.309502 
L 413.52691 148.309502 
L 414.533833 153.499096 
L 415.540757 153.499096 
L 416.54768 154.183841 
L 417.554603 148.045988 
L 418.561527 146.590076 
L 419.56845 148.559952 
L 420.575374 146.548722 
L 421.582297 146.548722 
L 422.58922 149.138651 
L 423.596144 147.766122 
L 424.603067 130.57896 
L 425.60999 134.5471 
L 426.616914 137.596772 
L 427.623837 133.964901 
L 428.630761 133.818107 
L 429.637684 131.321822 
L 430.644607 121.946558 
L 431.651531 125.705337 
L 432.658454 123.003175 
L 433.665377 124.820744 
L 434.672301 120.238858 
L 435.679224 118.299893 
L 437.693071 132.536427 
L 438.699994 128.574377 
L 439.706918 122.064323 
L 440.713841 118.290002 
L 441.720764 118.290002 
L 442.727688 114.29063 
L 443.734611 111.38797 
L 444.741534 116.536364 
L 445.748458 116.149878 
L 446.755381 116.149878 
L 447.762305 108.102419 
L 448.769228 105.264976 
L 449.776151 105.264976 
L 450.783075 112.558423 
L 451.789998 108.257668 
L 452.796921 112.801811 
L 453.803845 118.380786 
L 454.810768 117.141499 
L 455.817692 117.141499 
L 456.824615 116.783886 
L 457.831538 121.415049 
L 458.838462 124.823315 
L 459.845385 120.601343 
L 460.852308 120.601343 
L 461.859232 120.092768 
L 462.866155 113.911379 
L 463.873079 110.79652 
L 464.880002 108.837151 
L 465.886925 115.880179 
L 466.893849 112.74915 
L 467.900772 113.895286 
L 468.907695 115.594878 
L 469.914619 122.220547 
L 470.921542 126.617557 
L 471.928466 129.309175 
L 472.935389 134.397984 
L 473.942312 193.341254 
L 475.956159 193.359225 
L 479.983852 193.237656 
L 509.18463 192.840007 
L 534.357715 192.585361 
L 565.572339 192.192851 
L 577.655419 192.082308 
L 592.75927 191.98865 
L 602.828504 191.861137 
L 608.870044 191.696113 
L 624.980818 191.625144 
L 628.001588 191.54458 
L 632.029282 191.489708 
L 637.063898 191.468368 
L 645.119285 191.365296 
L 649.146979 191.160213 
L 680.361603 191.088132 
L 683.382373 191.01028 
L 705.534688 190.907535 
L 719.631615 190.75784 
L 736.749312 190.566992 
L 741.783929 190.432227 
L 744.804699 190.369122 
M 753.867009 190.357121 
" clip-path="url(#p8bcc71c832)" style="fill: none; stroke: #1f77b4; stroke-width: 1.8; stroke-linecap: square"/>
   </g>
   <g id="line2d_14">
    <path d="M 63.47 193.412143 
L 853.2 193.412143 
" clip-path="url(#p8bcc71c832)" style="fill: none; stroke-dasharray: 3.7,1.6; stroke-dashoffset: 0; stroke: #ff7f0e; stroke-opacity: 0.8"/>
   </g>
   <g id="line2d_15">
    <path d="M 63.47 193.391345 
L 853.2 193.391345 
" clip-path="url(#p8bcc71c832)" style="fill: none; stroke-dasharray: 3.7,1.6; stroke-dashoffset: 0; stroke: #d62728; stroke-opacity: 0.7"/>
   </g>
   <g id="line2d_16">
    <path d="M 466.893849 201.31 
L 466.893849 26.88 
" clip-path="url(#p8bcc71c832)" style="fill: none; stroke-dasharray: 1,1.65; stroke-dashoffset: 0; stroke: #555555; stroke-opacity: 0.8"/>
   </g>
   <g id="patch_6">
    <path d="M 63.47 201.31 
L 63.47 26.88 
" style="fill: none; stroke: #000000; stroke-width: 0.8; stroke-linejoin: miter; stroke-linecap: square"/>
   </g>
   <g id="patch_7">
    <path d="M 853.2 201.31 
L 853.2 26.88 
" style="fill: none; stroke: #000000; stroke-width: 0.8; stroke-linejoin: miter; stroke-linecap: square"/>
   </g>
   <g id="patch_8">
    <path d="M 63.47 201.31 
L 853.2 201.31 
" style="fill: none; stroke: #000000; stroke-width: 0.8; stroke-linejoin: miter; stroke-linecap: square"/>
   </g>
   <g id="patch_9">
    <path d="M 63.47 26.88 
L 853.2 26.88 
" style="fill: none; stroke: #000000; stroke-width: 0.8; stroke-linejoin: miter; stroke-linecap: square"/>
   </g>
   <g id="text_9">
    <!-- pre-mismatch -->
    <g style="fill: #333333" transform="translate(99.366818 47.672994) scale(0.09 -0.09)">
     <defs>
      <path id="DejaVuSans-70" d="M 1159 525 
L 1159 -1331 
L 581 -1331 
L 581 3500 
L 1159 3500 
L 1159 2969 
Q 1341 3281 1617 3432 
Q 1894 3584 2278 3584 
Q 2916 3584 3314 3078 
Q 3713 2572 3713 1747 
Q 3713 922 3314 415 
Q 2916 -91 2278 -91 
Q 1894 -91 1617 61 
Q 1341 213 1159 525 
z
M 3116 1747 
Q 3116 2381 2855 2742 
Q 2594 3103 2138 3103 
Q 1681 3103 1420 2742 
Q 1159 2381 1159 1747 
Q 1159 1113 1420 752 
Q 1681 391 2138 391 
Q 2594 391 2855 752 
Q 3116 1113 3116 1747 
z
" transform="scale(0.015625)"/>
      <path id="DejaVuSans-65" d="M 3597 1894 
L 3597 1613 
L 953 1613 
Q 991 1019 1311 708 
Q 1631 397 2203 397 
Q 2534 397 2845 478 
Q 3156 559 3463 722 
L 3463 178 
Q 3153 47 2828 -22 
Q 2503 -91 2169 -91 
Q 1331 -91 842 396 
Q 353 884 353 1716 
Q 353 2575 817 3079 
Q 1281 3584 2069 3584 
Q 2775 3584 3186 3129 
Q 3597 2675 3597 1894 
z
M 3022 2063 
Q 3016 2534 2758 2815 
Q 2500 3097 2075 3097 
Q 1594 3097 1305 2825 
Q 1016 2553 972 2059 
L 3022 2063 
z
" transform="scale(0.015625)"/>
      <path id="DejaVuSans-2d" d="M 313 2009 
L 1997 2009 
L 1997 1497 
L 313 1497 
L 313 2009 
z
" transform="scale(0.015625)"/>
      <path id="DejaVuSans-6d" d="M 3328 2828 
Q 3544 3216 3844 3400 
Q 4144 3584 4550 3584 
Q 5097 3584 5394 3201 
Q 5691 2819 5691 2113 
L 5691 0 
L 5113 0 
L 5113 2094 
Q 5113 2597 4934 2840 
Q 4756 3084 4391 3084 
Q 3944 3084 3684 2787 
Q 3425 2491 3425 1978 
L 3425 0 
L 2847 0 
L 2847 2094 
Q 2847 2600 2669 2842 
Q 2491 3084 2119 3084 
Q 1678 3084 1418 2786 
Q 1159 2488 1159 1978 
L 1159 0 
L 581 0 
L 581 3500 
L 1159 3500 
L 1159 2956 
Q 1356 3278 1631 3431 
Q 1906 3584 2284 3584 
Q 2666 3584 2933 3390 
Q 3200 3197 3328 2828 
z
" transform="scale(0.015625)"/>
      <path id="DejaVuSans-69" d="M 603 3500 
L 1178 3500 
L 1178 0 
L 603 0 
L 603 3500 
z
M 603 4863 
L 1178 4863 
L 1178 4134 
L 603 4134 
L 603 4863 
z
" transform="scale(0.015625)"/>
      <path id="DejaVuSans-73" d="M 2834 3397 
L 2834 2853 
Q 2591 2978 2328 3040 
Q 2066 3103 1784 3103 
Q 1356 3103 1142 2972 
Q 928 2841 928 2578 
Q 928 2378 1081 2264 
Q 1234 2150 1697 2047 
L 1894 2003 
Q 2506 1872 2764 1633 
Q 3022 1394 3022 966 
Q 3022 478 2636 193 
Q 2250 -91 1575 -91 
Q 1294 -91 989 -36 
Q 684 19 347 128 
L 347 722 
Q 666 556 975 473 
Q 1284 391 1588 391 
Q 1994 391 2212 530 
Q 2431 669 2431 922 
Q 2431 1156 2273 1281 
Q 2116 1406 1581 1522 
L 1381 1569 
Q 847 1681 609 1914 
Q 372 2147 372 2553 
Q 372 3047 722 3315 
Q 1072 3584 1716 3584 
Q 2034 3584 2315 3537 
Q 2597 3491 2834 3397 
z
" transform="scale(0.015625)"/>
      <path id="DejaVuSans-61" d="M 2194 1759 
Q 1497 1759 1228 1600 
Q 959 1441 959 1056 
Q 959 750 1161 570 
Q 1363 391 1709 391 
Q 2188 391 2477 730 
Q 2766 1069 2766 1631 
L 2766 1759 
L 2194 1759 
z
M 3341 1997 
L 3341 0 
L 2766 0 
L 2766 531 
Q 2569 213 2275 61 
Q 1981 -91 1556 -91 
Q 1019 -91 701 211 
Q 384 513 384 1019 
Q 384 1609 779 1909 
Q 1175 2209 1959 2209 
L 2766 2209 
L 2766 2266 
Q 2766 2663 2505 2880 
Q 2244 3097 1772 3097 
Q 1472 3097 1187 3025 
Q 903 2953 641 2809 
L 641 3341 
Q 956 3463 1253 3523 
Q 1550 3584 1831 3584 
Q 2591 3584 2966 3190 
Q 3341 2797 3341 1997 
z
" transform="scale(0.015625)"/>
      <path id="DejaVuSans-74" d="M 1172 4494 
L 1172 3500 
L 2356 3500 
L 2356 3053 
L 1172 3053 
L 1172 1153 
Q 1172 725 1289 603 
Q 1406 481 1766 481 
L 2356 481 
L 2356 0 
L 1766 0 
Q 1100 0 847 248 
Q 594 497 594 1153 
L 594 3053 
L 172 3053 
L 172 3500 
L 594 3500 
L 594 4494 
L 1172 4494 
z
" transform="scale(0.015625)"/>
      <path id="DejaVuSans-63" d="M 3122 3366 
L 3122 2828 
Q 2878 2963 2633 3030 
Q 2388 3097 2138 3097 
Q 1578 3097 1268 2742 
Q 959 2388 959 1747 
Q 959 1106 1268 751 
Q 1578 397 2138 397 
Q 2388 397 2633 464 
Q 2878 531 3122 666 
L 3122 134 
Q 2881 22 2623 -34 
Q 2366 -91 2075 -91 
Q 1284 -91 818 406 
Q 353 903 353 1747 
Q 353 2603 823 3093 
Q 1294 3584 2113 3584 
Q 2378 3584 2631 3529 
Q 2884 3475 3122 3366 
z
" transform="scale(0.015625)"/>
     </defs>
     <use xlink:href="#DejaVuSans-70"/>
     <use xlink:href="#DejaVuSans-72" transform="translate(63.476562 0)"/>
     <use xlink:href="#DejaVuSans-65" transform="translate(102.339844 0)"/>
     <use xlink:href="#DejaVuSans-2d" transform="translate(163.863281 0)"/>
     <use xlink:href="#DejaVuSans-6d" transform="translate(199.947266 0)"/>
     <use xlink:href="#DejaVuSans-69" transform="translate(297.359375 0)"/>
     <use xlink:href="#DejaVuSans-73" transform="translate(325.142578 0)"/>
     <use xlink:href="#DejaVuSans-6d" transform="translate(377.242188 0)"/>
     <use xlink:href="#DejaVuSans-61" transform="translate(474.654297 0)"/>
     <use xlink:href="#DejaVuSans-74" transform="translate(535.933594 0)"/>
     <use xlink:href="#DejaVuSans-63" transform="translate(575.142578 0)"/>
     <use xlink:href="#DejaVuSans-68" transform="translate(630.123047 0)"/>
    </g>
   </g>
   <g id="text_10">
    <!-- mismatch + buildup -->
    <g style="fill: #333333" transform="translate(112.456822 47.672994) scale(0.09 -0.09)">
     <defs>
      <path id="DejaVuSans-20" transform="scale(0.015625)"/>
      <path id="DejaVuSans-2b" d="M 2944 4013 
L 2944 2272 
L 4684 2272 
L 4684 1741 
L 2944 1741 
L 2944 0 
L 2419 0 
L 2419 1741 
L 678 1741 
L 678 2272 
L 2419 2272 
L 2419 4013 
L 2944 4013 
z
" transform="scale(0.015625)"/>
      <path id="DejaVuSans-62" d="M 3116 1747 
Q 3116 2381 2855 2742 
Q 2594 3103 2138 3103 
Q 1681 3103 1420 2742 
Q 1159 2381 1159 1747 
Q 1159 1113 1420 752 
Q 1681 391 2138 391 
Q 2594 391 2855 752 
Q 3116 1113 3116 1747 
z
M 1159 2969 
Q 1341 3281 1617 3432 
Q 1894 3584 2278 3584 
Q 2916 3584 3314 3078 
Q 3713 2572 3713 1747 
Q 3713 922 3314 415 
Q 2916 -91 2278 -91 
Q 1894 -91 1617 61 
Q 1341 213 1159 525 
L 1159 0 
L 581 0 
L 581 4863 
L 1159 4863 
L 1159 2969 
z
" transform="scale(0.015625)"/>
      <path id="DejaVuSans-75" d="M 544 1381 
L 544 3500 
L 1119 3500 
L 1119 1403 
Q 1119 906 1312 657 
Q 1506 409 1894 409 
Q 2359 409 2629 706 
Q 2900 1003 2900 1516 
L 2900 3500 
L 3475 3500 
L 3475 0 
L 2900 0 
L 2900 538 
Q 2691 219 2414 64 
Q 2138 -91 1772 -91 
Q 1169 -91 856 284 
Q 544 659 544 1381 
z
M 1991 3584 
L 1991 3584 
z
" transform="scale(0.015625)"/>
      <path id="DejaVuSans-6c" d="M 603 4863 
L 1178 4863 
L 1178 0 
L 603 0 
L 603 4863 
z
" transform="scale(0.015625)"/>
      <path id="DejaVuSans-64" d="M 2906 2969 
L 2906 4863 
L 3481 4863 
L 3481 0 
L 2906 0 
L 2906 525 
Q 2725 213 2448 61 
Q 2172 -91 1784 -91 
Q 1150 -91 751 415 
Q 353 922 353 1747 
Q 353 2572 751 3078 
Q 1150 3584 1784 3584 
Q 2172 3584 2448 3432 
Q 2725 3281 2906 2969 
z
M 947 1747 
Q 947 1113 1208 752 
Q 1469 391 1925 391 
Q 2381 391 2643 752 
Q 2906 1113 2906 1747 
Q 2906 2381 2643 2742 
Q 2381 3103 1925 3103 
Q 1469 3103 1208 2742 
Q 947 2381 947 1747 
z
" transform="scale(0.015625)"/>
     </defs>
     <use xlink:href="#DejaVuSans-6d"/>
     <use xlink:href="#DejaVuSans-69" transform="translate(97.412109 0)"/>
     <use xlink:href="#DejaVuSans-73" transform="translate(125.195312 0)"/>
     <use xlink:href="#DejaVuSans-6d" transform="translate(177.294922 0)"/>
     <use xlink:href="#DejaVuSans-61" transform="translate(274.707031 0)"/>
     <use xlink:href="#DejaVuSans-74" transform="translate(335.986328 0)"/>
     <use xlink:href="#DejaVuSans-63" transform="translate(375.195312 0)"/>
     <use xlink:href="#DejaVuSans-68" transform="translate(430.175781 0)"/>
     <use xlink:href="#DejaVuSans-20" transform="translate(493.554688 0)"/>
     <use xlink:href="#DejaVuSans-2b" transform="translate(525.341797 0)"/>
     <use xlink:href="#DejaVuSans-20" transform="translate(609.130859 0)"/>
     <use xlink:href="#DejaVuSans-62" transform="translate(640.917969 0)"/>
     <use xlink:href="#DejaVuSans-75" transform="translate(704.394531 0)"/>
     <use xlink:href="#DejaVuSans-69" transform="translate(767.773438 0)"/>
     <use xlink:href="#DejaVuSans-6c" transform="translate(795.556641 0)"/>
     <use xlink:href="#DejaVuSans-64" transform="translate(823.339844 0)"/>
     <use xlink:href="#DejaVuSans-75" transform="translate(886.816406 0)"/>
     <use xlink:href="#DejaVuSans-70" transform="translate(950.195312 0)"/>
    </g>
   </g>
   <g id="text_11">
    <!-- unwind / tail -->
    <g style="fill: #333333" transform="translate(460.852308 47.672994) scale(0.09 -0.09)">
     <defs>
      <path id="DejaVuSans-6e" d="M 3513 2113 
L 3513 0 
L 2938 0 
L 2938 2094 
Q 2938 2591 2744 2837 
Q 2550 3084 2163 3084 
Q 1697 3084 1428 2787 
Q 1159 2491 1159 1978 
L 1159 0 
L 581 0 
L 581 3500 
L 1159 3500 
L 1159 2956 
Q 1366 3272 1645 3428 
Q 1925 3584 2291 3584 
Q 2894 3584 3203 3211 
Q 3513 2838 3513 2113 
z
" transform="scale(0.015625)"/>
      <path id="DejaVuSans-77" d="M 269 3500 
L 844 3500 
L 1563 769 
L 2278 3500 
L 2956 3500 
L 3675 769 
L 4391 3500 
L 4966 3500 
L 4050 0 
L 3372 0 
L 2619 2869 
L 1863 0 
L 1184 0 
L 269 3500 
z
" transform="scale(0.015625)"/>
      <path id="DejaVuSans-2f" d="M 1625 4666 
L 2156 4666 
L 531 -594 
L 0 -594 
L 1625 4666 
z
" transform="scale(0.015625)"/>
     </defs>
     <use xlink:href="#DejaVuSans-75"/>
     <use xlink:href="#DejaVuSans-6e" transform="translate(63.378906 0)"/>
     <use xlink:href="#DejaVuSans-77" transform="translate(126.757812 0)"/>
     <use xlink:href="#DejaVuSans-69" transform="translate(208.544922 0)"/>
     <use xlink:href="#DejaVuSans-6e" transform="translate(236.328125 0)"/>
     <use xlink:href="#DejaVuSans-64" transform="translate(299.707031 0)"/>
     <use xlink:href="#DejaVuSans-20" transform="translate(363.183594 0)"/>
     <use xlink:href="#DejaVuSans-2f" transform="translate(394.970703 0)"/>
     <use xlink:href="#DejaVuSans-20" transform="translate(428.662109 0)"/>
     <use xlink:href="#DejaVuSans-74" transform="translate(460.449219 0)"/>
     <use xlink:href="#DejaVuSans-61" transform="translate(499.658203 0)"/>
     <use xlink:href="#DejaVuSans-69" transform="translate(560.9375 0)"/>
     <use xlink:href="#DejaVuSans-6c" transform="translate(588.720703 0)"/>
    </g>
   </g>
   <g id="text_12">
    <!-- NYC 311 (HPD, 2024 created): window-normalized rho and backlog (W=14) -->
    <g transform="translate(232.149063 20.88) scale(0.12 -0.12)">
     <defs>
      <path id="DejaVuSans-4e" d="M 628 4666 
L 1478 4666 
L 3547 763 
L 3547 4666 
L 4159 4666 
L 4159 0 
L 3309 0 
L 1241 3903 
L 1241 0 
L 628 0 
L 628 4666 
z
" transform="scale(0.015625)"/>
      <path id="DejaVuSans-59" d="M -13 4666 
L 666 4666 
L 1959 2747 
L 3244 4666 
L 3922 4666 
L 2272 2222 
L 2272 0 
L 1638 0 
L 1638 2222 
L -13 4666 
z
" transform="scale(0.015625)"/>
      <path id="DejaVuSans-43" d="M 4122 4306 
L 4122 3641 
Q 3803 3938 3442 4084 
Q 3081 4231 2675 4231 
Q 1875 4231 1450 3742 
Q 1025 3253 1025 2328 
Q 1025 1406 1450 917 
Q 1875 428 2675 428 
Q 3081 428 3442 575 
Q 3803 722 4122 1019 
L 4122 359 
Q 3791 134 3420 21 
Q 3050 -91 2638 -91 
Q 1578 -91 968 557 
Q 359 1206 359 2328 
Q 359 3453 968 4101 
Q 1578 4750 2638 4750 
Q 3056 4750 3426 4639 
Q 3797 4528 4122 4306 
z
" transform="scale(0.015625)"/>
      <path id="DejaVuSans-33" d="M 2597 2516 
Q 3050 2419 3304 2112 
Q 3559 1806 3559 1356 
Q 3559 666 3084 287 
Q 2609 -91 1734 -91 
Q 1441 -91 1130 -33 
Q 819 25 488 141 
L 488 750 
Q 750 597 1062 519 
Q 1375 441 1716 441 
Q 2309 441 2620 675 
Q 2931 909 2931 1356 
Q 2931 1769 2642 2001 
Q 2353 2234 1838 2234 
L 1294 2234 
L 1294 2753 
L 1863 2753 
Q 2328 2753 2575 2939 
Q 2822 3125 2822 3475 
Q 2822 3834 2567 4026 
Q 2313 4219 1838 4219 
Q 1578 4219 1281 4162 
Q 984 4106 628 3988 
L 628 4550 
Q 988 4650 1302 4700 
Q 1616 4750 1894 4750 
Q 2613 4750 3031 4423 
Q 3450 4097 3450 3541 
Q 3450 3153 3228 2886 
Q 3006 2619 2597 2516 
z
" transform="scale(0.015625)"/>
      <path id="DejaVuSans-28" d="M 1984 4856 
Q 1566 4138 1362 3434 
Q 1159 2731 1159 2009 
Q 1159 1288 1364 580 
Q 1569 -128 1984 -844 
L 1484 -844 
Q 1016 -109 783 600 
Q 550 1309 550 2009 
Q 550 2706 781 3412 
Q 1013 4119 1484 4856 
L 1984 4856 
z
" transform="scale(0.015625)"/>
      <path id="DejaVuSans-48" d="M 628 4666 
L 1259 4666 
L 1259 2753 
L 3553 2753 
L 3553 4666 
L 4184 4666 
L 4184 0 
L 3553 0 
L 3553 2222 
L 1259 2222 
L 1259 0 
L 628 0 
L 628 4666 
z
" transform="scale(0.015625)"/>
      <path id="DejaVuSans-50" d="M 1259 4147 
L 1259 2394 
L 2053 2394 
Q 2494 2394 2734 2622 
Q 2975 2850 2975 3272 
Q 2975 3691 2734 3919 
Q 2494 4147 2053 4147 
L 1259 4147 
z
M 628 4666 
L 2053 4666 
Q 2838 4666 3239 4311 
Q 3641 3956 3641 3272 
Q 3641 2581 3239 2228 
Q 2838 1875 2053 1875 
L 1259 1875 
L 1259 0 
L 628 0 
L 628 4666 
z
" transform="scale(0.015625)"/>
      <path id="DejaVuSans-44" d="M 1259 4147 
L 1259 519 
L 2022 519 
Q 2988 519 3436 956 
Q 3884 1394 3884 2338 
Q 3884 3275 3436 3711 
Q 2988 4147 2022 4147 
L 1259 4147 
z
M 628 4666 
L 1925 4666 
Q 3281 4666 3915 4102 
Q 4550 3538 4550 2338 
Q 4550 1131 3912 565 
Q 3275 0 1925 0 
L 628 0 
L 628 4666 
z
" transform="scale(0.015625)"/>
      <path id="DejaVuSans-2c" d="M 750 794 
L 1409 794 
L 1409 256 
L 897 -744 
L 494 -744 
L 750 256 
L 750 794 
z
" transform="scale(0.015625)"/>
      <path id="DejaVuSans-34" d="M 2419 4116 
L 825 1625 
L 2419 1625 
L 2419 4116 
z
M 2253 4666 
L 3047 4666 
L 3047 1625 
L 3713 1625 
L 3713 1100 
L 3047 1100 
L 3047 0 
L 2419 0 
L 2419 1100 
L 313 1100 
L 313 1709 
L 2253 4666 
z
" transform="scale(0.015625)"/>
      <path id="DejaVuSans-29" d="M 513 4856 
L 1013 4856 
Q 1481 4119 1714 3412 
Q 1947 2706 1947 2009 
Q 1947 1309 1714 600 
Q 1481 -109 1013 -844 
L 513 -844 
Q 928 -128 1133 580 
Q 1338 1288 1338 2009 
Q 1338 2731 1133 3434 
Q 928 4138 513 4856 
z
" transform="scale(0.015625)"/>
      <path id="DejaVuSans-3a" d="M 750 794 
L 1409 794 
L 1409 0 
L 750 0 
L 750 794 
z
M 750 3309 
L 1409 3309 
L 1409 2516 
L 750 2516 
L 750 3309 
z
" transform="scale(0.015625)"/>
      <path id="DejaVuSans-7a" d="M 353 3500 
L 3084 3500 
L 3084 2975 
L 922 459 
L 3084 459 
L 3084 0 
L 275 0 
L 275 525 
L 2438 3041 
L 353 3041 
L 353 3500 
z
" transform="scale(0.015625)"/>
      <path id="DejaVuSans-6b" d="M 581 4863 
L 1159 4863 
L 1159 1991 
L 2875 3500 
L 3609 3500 
L 1753 1863 
L 3688 0 
L 2938 0 
L 1159 1709 
L 1159 0 
L 581 0 
L 581 4863 
z
" transform="scale(0.015625)"/>
      <path id="DejaVuSans-67" d="M 2906 1791 
Q 2906 2416 2648 2759 
Q 2391 3103 1925 3103 
Q 1463 3103 1205 2759 
Q 947 2416 947 1791 
Q 947 1169 1205 825 
Q 1463 481 1925 481 
Q 2391 481 2648 825 
Q 2906 1169 2906 1791 
z
M 3481 434 
Q 3481 -459 3084 -895 
Q 2688 -1331 1869 -1331 
Q 1566 -1331 1297 -1286 
Q 1028 -1241 775 -1147 
L 775 -588 
Q 1028 -725 1275 -790 
Q 1522 -856 1778 -856 
Q 2344 -856 2625 -561 
Q 2906 -266 2906 331 
L 2906 616 
Q 2728 306 2450 153 
Q 2172 0 1784 0 
Q 1141 0 747 490 
Q 353 981 353 1791 
Q 353 2603 747 3093 
Q 1141 3584 1784 3584 
Q 2172 3584 2450 3431 
Q 2728 3278 2906 2969 
L 2906 3500 
L 3481 3500 
L 3481 434 
z
" transform="scale(0.015625)"/>
      <path id="DejaVuSans-57" d="M 213 4666 
L 850 4666 
L 1831 722 
L 2809 4666 
L 3519 4666 
L 4500 722 
L 5478 4666 
L 6119 4666 
L 4947 0 
L 4153 0 
L 3169 4050 
L 2175 0 
L 1381 0 
L 213 4666 
z
" transform="scale(0.015625)"/>
      <path id="DejaVuSans-3d" d="M 678 2906 
L 4684 2906 
L 4684 2381 
L 678 2381 
L 678 2906 
z
M 678 1631 
L 4684 1631 
L 4684 1100 
L 678 1100 
L 678 1631 
z
" transform="scale(0.015625)"/>
     </defs>
     <use xlink:href="#DejaVuSans-4e"/>
     <use xlink:href="#DejaVuSans-59" transform="translate(74.804688 0)"/>
     <use xlink:href="#DejaVuSans-43" transform="translate(130.388672 0)"/>
     <use xlink:href="#DejaVuSans-20" transform="translate(200.212891 0)"/>
     <use xlink:href="#DejaVuSans-33" transform="translate(232 0)"/>
     <use xlink:href="#DejaVuSans-31" transform="translate(295.623047 0)"/>
     <use xlink:href="#DejaVuSans-31" transform="translate(359.246094 0)"/>
     <use xlink:href="#DejaVuSans-20" transform="translate(422.869141 0)"/>
     <use xlink:href="#DejaVuSans-28" transform="translate(454.65625 0)"/>
     <use xlink:href="#DejaVuSans-48" transform="translate(493.669922 0)"/>
     <use xlink:href="#DejaVuSans-50" transform="translate(568.865234 0)"/>
     <use xlink:href="#DejaVuSans-44" transform="translate(629.167969 0)"/>
     <use xlink:href="#DejaVuSans-2c" transform="translate(706.169922 0)"/>
     <use xlink:href="#DejaVuSans-20" transform="translate(737.957031 0)"/>
     <use xlink:href="#DejaVuSans-32" transform="translate(769.744141 0)"/>
     <use xlink:href="#DejaVuSans-30" transform="translate(833.367188 0)"/>
     <use xlink:href="#DejaVuSans-32" transform="translate(896.990234 0)"/>
     <use xlink:href="#DejaVuSans-34" transform="translate(960.613281 0)"/>
     <use xlink:href="#DejaVuSans-20" transform="translate(1024.236328 0)"/>
     <use xlink:href="#DejaVuSans-63" transform="translate(1056.023438 0)"/>
     <use xlink:href="#DejaVuSans-72" transform="translate(1111.003906 0)"/>
     <use xlink:href="#DejaVuSans-65" transform="translate(1149.867188 0)"/>
     <use xlink:href="#DejaVuSans-61" transform="translate(1211.390625 0)"/>
     <use xlink:href="#DejaVuSans-74" transform="translate(1272.669922 0)"/>
     <use xlink:href="#DejaVuSans-65" transform="translate(1311.878906 0)"/>
     <use xlink:href="#DejaVuSans-64" transform="translate(1373.402344 0)"/>
     <use xlink:href="#DejaVuSans-29" transform="translate(1436.878906 0)"/>
     <use xlink:href="#DejaVuSans-3a" transform="translate(1475.892578 0)"/>
     <use xlink:href="#DejaVuSans-20" transform="translate(1509.583984 0)"/>
     <use xlink:href="#DejaVuSans-77" transform="translate(1541.371094 0)"/>
     <use xlink:href="#DejaVuSans-69" transform="translate(1623.158203 0)"/>
     <use xlink:href="#DejaVuSans-6e" transform="translate(1650.941406 0)"/>
     <use xlink:href="#DejaVuSans-64" transform="translate(1714.320312 0)"/>
     <use xlink:href="#DejaVuSans-6f" transform="translate(1777.796875 0)"/>
     <use xlink:href="#DejaVuSans-77" transform="translate(1838.978516 0)"/>
     <use xlink:href="#DejaVuSans-2d" transform="translate(1920.765625 0)"/>
     <use xlink:href="#DejaVuSans-6e" transform="translate(1956.849609 0)"/>
     <use xlink:href="#DejaVuSans-6f" transform="translate(2020.228516 0)"/>
     <use xlink:href="#DejaVuSans-72" transform="translate(2081.410156 0)"/>
     <use xlink:href="#DejaVuSans-6d" transform="translate(2120.773438 0)"/>
     <use xlink:href="#DejaVuSans-61" transform="translate(2218.185547 0)"/>
     <use xlink:href="#DejaVuSans-6c" transform="translate(2279.464844 0)"/>
     <use xlink:href="#DejaVuSans-69" transform="translate(2307.248047 0)"/>
     <use xlink:href="#DejaVuSans-7a" transform="translate(2335.03125 0)"/>
     <use xlink:href="#DejaVuSans-65" transform="translate(2387.521484 0)"/>
     <use xlink:href="#DejaVuSans-64" transform="translate(2449.044922 0)"/>
     <use xlink:href="#DejaVuSans-20" transform="translate(2512.521484 0)"/>
     <use xlink:href="#DejaVuSans-72" transform="translate(2544.308594 0)"/>
     <use xlink:href="#DejaVuSans-68" transform="translate(2583.671875 0)"/>
     <use xlink:href="#DejaVuSans-6f" transform="translate(2647.050781 0)"/>
     <use xlink:href="#DejaVuSans-20" transform="translate(2708.232422 0)"/>
     <use xlink:href="#DejaVuSans-61" transform="translate(2740.019531 0)"/>
     <use xlink:href="#DejaVuSans-6e" transform="translate(2801.298828 0)"/>
     <use xlink:href="#DejaVuSans-64" transform="translate(2864.677734 0)"/>
     <use xlink:href="#DejaVuSans-20" transform="translate(2928.154297 0)"/>
     <use xlink:href="#DejaVuSans-62" transform="translate(2959.941406 0)"/>
     <use xlink:href="#DejaVuSans-61" transform="translate(3023.417969 0)"/>
     <use xlink:href="#DejaVuSans-63" transform="translate(3084.697266 0)"/>
     <use xlink:href="#DejaVuSans-6b" transform="translate(3139.677734 0)"/>
     <use xlink:href="#DejaVuSans-6c" transform="translate(3197.587891 0)"/>
     <use xlink:href="#DejaVuSans-6f" transform="translate(3225.371094 0)"/>
     <use xlink:href="#DejaVuSans-67" transform="translate(3286.552734 0)"/>
     <use xlink:href="#DejaVuSans-20" transform="translate(3350.029297 0)"/>
     <use xlink:href="#DejaVuSans-28" transform="translate(3381.816406 0)"/>
     <use xlink:href="#DejaVuSans-57" transform="translate(3420.830078 0)"/>
     <use xlink:href="#DejaVuSans-3d" transform="translate(3519.707031 0)"/>
     <use xlink:href="#DejaVuSans-31" transform="translate(3603.496094 0)"/>
     <use xlink:href="#DejaVuSans-34" transform="translate(3667.119141 0)"/>
     <use xlink:href="#DejaVuSans-29" transform="translate(3730.742188 0)"/>
    </g>
   </g>
   <g id="legend_1">
    <g id="patch_10">
     <path d="M 69.77 47.290313 
L 364.491875 47.290313 
Q 366.291875 47.290313 366.291875 45.490313 
L 366.291875 33.18 
Q 366.291875 31.38 364.491875 31.38 
L 69.77 31.38 
Q 67.97 31.38 67.97 33.18 
L 67.97 45.490313 
Q 67.97 47.290313 69.77 47.290313 
z
" style="fill: #ffffff; opacity: 0.8; stroke: #cccccc; stroke-linejoin: miter"/>
    </g>
    <g id="line2d_17">
     <path d="M 71.57 38.668594 
L 80.57 38.668594 
L 89.57 38.668594 
" style="fill: none; stroke: #1f77b4; stroke-width: 1.8; stroke-linecap: square"/>
    </g>
    <g id="text_13">
     <!-- rho (window-normalized) -->
     <g transform="translate(96.77 41.818594) scale(0.09 -0.09)">
      <use xlink:href="#DejaVuSans-72"/>
      <use xlink:href="#DejaVuSans-68" transform="translate(39.363281 0)"/>
      <use xlink:href="#DejaVuSans-6f" transform="translate(102.742188 0)"/>
      <use xlink:href="#DejaVuSans-20" transform="translate(163.923828 0)"/>
      <use xlink:href="#DejaVuSans-28" transform="translate(195.710938 0)"/>
      <use xlink:href="#DejaVuSans-77" transform="translate(234.724609 0)"/>
      <use xlink:href="#DejaVuSans-69" transform="translate(316.511719 0)"/>
      <use xlink:href="#DejaVuSans-6e" transform="translate(344.294922 0)"/>
      <use xlink:href="#DejaVuSans-64" transform="translate(407.673828 0)"/>
      <use xlink:href="#DejaVuSans-6f" transform="translate(471.150391 0)"/>
      <use xlink:href="#DejaVuSans-77" transform="translate(532.332031 0)"/>
      <use xlink:href="#DejaVuSans-2d" transform="translate(614.119141 0)"/>
      <use xlink:href="#DejaVuSans-6e" transform="translate(650.203125 0)"/>
      <use xlink:href="#DejaVuSans-6f" transform="translate(713.582031 0)"/>
      <use xlink:href="#DejaVuSans-72" transform="translate(774.763672 0)"/>
      <use xlink:href="#DejaVuSans-6d" transform="translate(814.126953 0)"/>
      <use xlink:href="#DejaVuSans-61" transform="translate(911.539062 0)"/>
      <use xlink:href="#DejaVuSans-6c" transform="translate(972.818359 0)"/>
      <use xlink:href="#DejaVuSans-69" transform="translate(1000.601562 0)"/>
      <use xlink:href="#DejaVuSans-7a" transform="translate(1028.384766 0)"/>
      <use xlink:href="#DejaVuSans-65" transform="translate(1080.875 0)"/>
      <use xlink:href="#DejaVuSans-64" transform="translate(1142.398438 0)"/>
      <use xlink:href="#DejaVuSans-29" transform="translate(1205.875 0)"/>
     </g>
    </g>
    <g id="line2d_18">
     <path d="M 226.80875 38.668594 
L 235.80875 38.668594 
L 244.80875 38.668594 
" style="fill: none; stroke-dasharray: 3.7,1.6; stroke-dashoffset: 0; stroke: #ff7f0e; stroke-opacity: 0.8"/>
    </g>
    <g id="text_14">
     <!-- rho = 1 -->
     <g transform="translate(252.00875 41.818594) scale(0.09 -0.09)">
      <use xlink:href="#DejaVuSans-72"/>
      <use xlink:href="#DejaVuSans-68" transform="translate(39.363281 0)"/>
      <use xlink:href="#DejaVuSans-6f" transform="translate(102.742188 0)"/>
      <use xlink:href="#DejaVuSans-20" transform="translate(163.923828 0)"/>
      <use xlink:href="#DejaVuSans-3d" transform="translate(195.710938 0)"/>
      <use xlink:href="#DejaVuSans-20" transform="translate(279.5 0)"/>
      <use xlink:href="#DejaVuSans-31" transform="translate(311.287109 0)"/>
     </g>
    </g>
    <g id="line2d_19">
     <path d="M 303.750313 38.668594 
L 312.750313 38.668594 
L 321.750313 38.668594 
" style="fill: none; stroke-dasharray: 3.7,1.6; stroke-dashoffset: 0; stroke: #d62728; stroke-opacity: 0.7"/>
    </g>
    <g id="text_15">
     <!-- rho = 3 -->
     <g transform="translate(328.950312 41.818594) scale(0.09 -0.09)">
      <use xlink:href="#DejaVuSans-72"/>
      <use xlink:href="#DejaVuSans-68" transform="translate(39.363281 0)"/>
      <use xlink:href="#DejaVuSans-6f" transform="translate(102.742188 0)"/>
      <use xlink:href="#DejaVuSans-20" transform="translate(163.923828 0)"/>
      <use xlink:href="#DejaVuSans-3d" transform="translate(195.710938 0)"/>
      <use xlink:href="#DejaVuSans-20" transform="translate(279.5 0)"/>
      <use xlink:href="#DejaVuSans-33" transform="translate(311.287109 0)"/>
     </g>
    </g>
   </g>
  </g>
  <g id="axes_2">
   <g id="patch_11">
    <path d="M 63.47 390.04 
L 853.2 390.04 
L 853.2 215.61 
L 63.47 215.61 
z
" style="fill: #ffffff"/>
   </g>
   <g id="patch_12">
    <path d="M 99.366818 390.04 
L 112.456822 390.04 
L 112.456822 215.61 
L 99.366818 215.61 
z
" clip-path="url(#pf14053e1b3)" style="fill: #4c78a8; opacity: 0.08"/>
   </g>
   <g id="patch_13">
    <path d="M 112.456822 390.04 
L 460.852308 390.04 
L 460.852308 215.61 
L 112.456822 215.61 
z
" clip-path="url(#pf14053e1b3)" style="fill: #f58518; opacity: 0.08"/>
   </g>
   <g id="patch_14">
    <path d="M 460.852308 390.04 
L 817.303182 390.04 
L 817.303182 215.61 
L 460.852308 215.61 
z
" clip-path="url(#pf14053e1b3)" style="fill: #54a24b; opacity: 0.08"/>
   </g>
   <g id="matplotlib.axis_3">
    <g id="xtick_6">
     <g id="line2d_20">
      <g>
       <use xlink:href="#mebbd272c43" x="99.366818" y="390.04" style="stroke: #000000; stroke-width: 0.8"/>
      </g>
     </g>
     <g id="text_16">
      <!-- 2024 -->
      <g transform="translate(86.641818 404.638438) scale(0.1 -0.1)">
       <use xlink:href="#DejaVuSans-32"/>
       <use xlink:href="#DejaVuSans-30" transform="translate(63.623047 0)"/>
       <use xlink:href="#DejaVuSans-32" transform="translate(127.246094 0)"/>
       <use xlink:href="#DejaVuSans-34" transform="translate(190.869141 0)"/>
      </g>
     </g>
    </g>
    <g id="xtick_7">
     <g id="line2d_21">
      <g>
       <use xlink:href="#mebbd272c43" x="282.626872" y="390.04" style="stroke: #000000; stroke-width: 0.8"/>
      </g>
     </g>
     <g id="text_17">
      <!-- Jul -->
      <g transform="translate(276.594059 404.638438) scale(0.1 -0.1)">
       <defs>
        <path id="DejaVuSans-4a" d="M 628 4666 
L 1259 4666 
L 1259 325 
Q 1259 -519 939 -900 
Q 619 -1281 -91 -1281 
L -331 -1281 
L -331 -750 
L -134 -750 
Q 284 -750 456 -515 
Q 628 -281 628 325 
L 628 4666 
z
" transform="scale(0.015625)"/>
       </defs>
       <use xlink:href="#DejaVuSans-4a"/>
       <use xlink:href="#DejaVuSans-75" transform="translate(29.492188 0)"/>
       <use xlink:href="#DejaVuSans-6c" transform="translate(92.871094 0)"/>
      </g>
     </g>
    </g>
    <g id="xtick_8">
     <g id="line2d_22">
      <g>
       <use xlink:href="#mebbd272c43" x="467.900772" y="390.04" style="stroke: #000000; stroke-width: 0.8"/>
      </g>
     </g>
     <g id="text_18">
      <!-- 2025 -->
      <g transform="translate(455.175772 404.638438) scale(0.1 -0.1)">
       <use xlink:href="#DejaVuSans-32"/>
       <use xlink:href="#DejaVuSans-30" transform="translate(63.623047 0)"/>
       <use xlink:href="#DejaVuSans-32" transform="translate(127.246094 0)"/>
       <use xlink:href="#DejaVuSans-35" transform="translate(190.869141 0)"/>
      </g>
     </g>
    </g>
    <g id="xtick_9">
     <g id="line2d_23">
      <g>
       <use xlink:href="#mebbd272c43" x="650.153902" y="390.04" style="stroke: #000000; stroke-width: 0.8"/>
      </g>
     </g>
     <g id="text_19">
      <!-- Jul -->
      <g transform="translate(644.12109 404.638438) scale(0.1 -0.1)">
       <use xlink:href="#DejaVuSans-4a"/>
       <use xlink:href="#DejaVuSans-75" transform="translate(29.492188 0)"/>
       <use xlink:href="#DejaVuSans-6c" transform="translate(92.871094 0)"/>
      </g>
     </g>
    </g>
    <g id="xtick_10">
     <g id="line2d_24">
      <g>
       <use xlink:href="#mebbd272c43" x="835.427802" y="390.04" style="stroke: #000000; stroke-width: 0.8"/>
      </g>
     </g>
     <g id="text_20">
      <!-- 2026 -->
      <g transform="translate(822.702802 404.638438) scale(0.1 -0.1)">
       <defs>
        <path id="DejaVuSans-36" d="M 2113 2584 
Q 1688 2584 1439 2293 
Q 1191 2003 1191 1497 
Q 1191 994 1439 701 
Q 1688 409 2113 409 
Q 2538 409 2786 701 
Q 3034 994 3034 1497 
Q 3034 2003 2786 2293 
Q 2538 2584 2113 2584 
z
M 3366 4563 
L 3366 3988 
Q 3128 4100 2886 4159 
Q 2644 4219 2406 4219 
Q 1781 4219 1451 3797 
Q 1122 3375 1075 2522 
Q 1259 2794 1537 2939 
Q 1816 3084 2150 3084 
Q 2853 3084 3261 2657 
Q 3669 2231 3669 1497 
Q 3669 778 3244 343 
Q 2819 -91 2113 -91 
Q 1303 -91 875 529 
Q 447 1150 447 2328 
Q 447 3434 972 4092 
Q 1497 4750 2381 4750 
Q 2619 4750 2861 4703 
Q 3103 4656 3366 4563 
z
" transform="scale(0.015625)"/>
       </defs>
       <use xlink:href="#DejaVuSans-32"/>
       <use xlink:href="#DejaVuSans-30" transform="translate(63.623047 0)"/>
       <use xlink:href="#DejaVuSans-32" transform="translate(127.246094 0)"/>
       <use xlink:href="#DejaVuSans-36" transform="translate(190.869141 0)"/>
      </g>
     </g>
    </g>
    <g id="text_21">
     <!-- date -->
     <g transform="translate(447.06 418.316563) scale(0.1 -0.1)">
      <use xlink:href="#DejaVuSans-64"/>
      <use xlink:href="#DejaVuSans-61" transform="translate(63.476562 0)"/>
      <use xlink:href="#DejaVuSans-74" transform="translate(124.755859 0)"/>
      <use xlink:href="#DejaVuSans-65" transform="translate(163.964844 0)"/>
     </g>
    </g>
   </g>
   <g id="matplotlib.axis_4">
    <g id="ytick_8">
     <g id="line2d_25">
      <g>
       <use xlink:href="#m46438e2cc1" x="63.47" y="387.670331" style="stroke: #000000; stroke-width: 0.8"/>
      </g>
     </g>
     <g id="text_22">
      <!-- 0 -->
      <g transform="translate(50.1075 391.469549) scale(0.1 -0.1)">
       <use xlink:href="#DejaVuSans-30"/>
      </g>
     </g>
    </g>
    <g id="ytick_9">
     <g id="line2d_26">
      <g>
       <use xlink:href="#m46438e2cc1" x="63.47" y="346.462273" style="stroke: #000000; stroke-width: 0.8"/>
      </g>
     </g>
     <g id="text_23">
      <!-- 10000 -->
      <g transform="translate(24.6575 350.261492) scale(0.1 -0.1)">
       <use xlink:href="#DejaVuSans-31"/>
       <use xlink:href="#DejaVuSans-30" transform="translate(63.623047 0)"/>
       <use xlink:href="#DejaVuSans-30" transform="translate(127.246094 0)"/>
       <use xlink:href="#DejaVuSans-30" transform="translate(190.869141 0)"/>
       <use xlink:href="#DejaVuSans-30" transform="translate(254.492188 0)"/>
      </g>
     </g>
    </g>
    <g id="ytick_10">
     <g id="line2d_27">
      <g>
       <use xlink:href="#m46438e2cc1" x="63.47" y="305.254215" style="stroke: #000000; stroke-width: 0.8"/>
      </g>
     </g>
     <g id="text_24">
      <!-- 20000 -->
      <g transform="translate(24.6575 309.053434) scale(0.1 -0.1)">
       <use xlink:href="#DejaVuSans-32"/>
       <use xlink:href="#DejaVuSans-30" transform="translate(63.623047 0)"/>
       <use xlink:href="#DejaVuSans-30" transform="translate(127.246094 0)"/>
       <use xlink:href="#DejaVuSans-30" transform="translate(190.869141 0)"/>
       <use xlink:href="#DejaVuSans-30" transform="translate(254.492188 0)"/>
      </g>
     </g>
    </g>
    <g id="ytick_11">
     <g id="line2d_28">
      <g>
       <use xlink:href="#m46438e2cc1" x="63.47" y="264.046157" style="stroke: #000000; stroke-width: 0.8"/>
      </g>
     </g>
     <g id="text_25">
      <!-- 30000 -->
      <g transform="translate(24.6575 267.845376) scale(0.1 -0.1)">
       <use xlink:href="#DejaVuSans-33"/>
       <use xlink:href="#DejaVuSans-30" transform="translate(63.623047 0)"/>
       <use xlink:href="#DejaVuSans-30" transform="translate(127.246094 0)"/>
       <use xlink:href="#DejaVuSans-30" transform="translate(190.869141 0)"/>
       <use xlink:href="#DejaVuSans-30" transform="translate(254.492188 0)"/>
      </g>
     </g>
    </g>
    <g id="ytick_12">
     <g id="line2d_29">
      <g>
       <use xlink:href="#m46438e2cc1" x="63.47" y="222.838099" style="stroke: #000000; stroke-width: 0.8"/>
      </g>
     </g>
     <g id="text_26">
      <!-- 40000 -->
      <g transform="translate(24.6575 226.637318) scale(0.1 -0.1)">
       <use xlink:href="#DejaVuSans-34"/>
       <use xlink:href="#DejaVuSans-30" transform="translate(63.623047 0)"/>
       <use xlink:href="#DejaVuSans-30" transform="translate(127.246094 0)"/>
       <use xlink:href="#DejaVuSans-30" transform="translate(190.869141 0)"/>
       <use xlink:href="#DejaVuSans-30" transform="translate(254.492188 0)"/>
      </g>
     </g>
    </g>
    <g id="text_27">
     <!-- backlog -->
     <g transform="translate(18.577812 322.330469) rotate(-90) scale(0.1 -0.1)">
      <use xlink:href="#DejaVuSans-62"/>
      <use xlink:href="#DejaVuSans-61" transform="translate(63.476562 0)"/>
      <use xlink:href="#DejaVuSans-63" transform="translate(124.755859 0)"/>
      <use xlink:href="#DejaVuSans-6b" transform="translate(179.736328 0)"/>
      <use xlink:href="#DejaVuSans-6c" transform="translate(237.646484 0)"/>
      <use xlink:href="#DejaVuSans-6f" transform="translate(265.429688 0)"/>
      <use xlink:href="#DejaVuSans-67" transform="translate(326.611328 0)"/>
     </g>
    </g>
   </g>
   <g id="line2d_30">
    <path d="M 99.366818 382.111364 
L 100.373742 373.231027 
L 101.380665 368.430288 
L 103.394512 353.908569 
L 104.401435 351.316582 
L 105.408358 350.191602 
L 106.415282 345.83179 
L 107.422205 340.606608 
L 109.436052 332.805922 
L 110.442975 331.573802 
L 111.449899 328.182378 
L 112.456822 322.66874 
L 114.470669 307.63192 
L 115.477592 303.667705 
L 116.484515 294.601932 
L 117.491439 293.126684 
L 118.498362 287.444092 
L 119.505286 283.059555 
L 120.512209 284.324642 
L 121.519132 286.949596 
L 122.526056 291.527811 
L 123.532979 292.619824 
L 124.539902 292.669274 
L 125.546826 293.987932 
L 127.560673 290.08965 
L 128.567596 287.32871 
L 129.574519 288.383636 
L 130.581443 287.567717 
L 131.588366 287.200965 
L 132.595289 285.222978 
L 133.602213 285.750441 
L 134.609136 284.571891 
L 135.61606 280.805474 
L 136.622983 282.161219 
L 137.629906 282.173582 
L 138.63683 283.508723 
L 139.643753 283.380978 
L 140.650676 282.808186 
L 141.6576 281.881005 
L 142.664523 279.070615 
L 143.671447 278.934628 
L 144.67837 276.594011 
L 145.685293 274.673715 
L 146.692217 273.738292 
L 147.69914 271.26993 
L 148.706063 270.103742 
L 149.712987 270.680655 
L 150.71991 272.473205 
L 151.726833 273.540494 
L 152.733757 273.870158 
L 153.74068 271.649044 
L 154.747604 270.157312 
L 155.754527 272.872923 
L 156.76145 271.438883 
L 157.768374 272.897648 
L 158.775297 270.622963 
L 159.78222 270.60648 
L 160.789144 269.444413 
L 162.802991 273.210829 
L 163.809914 271.789151 
L 164.816837 271.995192 
L 165.823761 270.771312 
L 166.830684 270.519943 
L 167.837607 267.857903 
L 168.844531 265.735688 
L 169.851454 264.00907 
L 170.858378 263.349741 
L 171.865301 264.4706 
L 172.872224 266.353808 
L 174.886071 268.896346 
L 175.892994 271.01444 
L 176.899918 272.687487 
L 177.906841 259.385526 
L 178.913765 261.363513 
L 179.920688 260.036613 
L 180.927611 259.163002 
L 181.934535 255.441915 
L 182.941458 254.939176 
L 183.948381 256.167177 
L 184.955305 254.621874 
L 185.962228 255.038076 
L 186.969151 256.59162 
L 187.976075 255.647955 
L 188.982998 256.076519 
L 189.989922 257.349848 
L 190.996845 260.679459 
L 192.003768 258.9446 
L 193.010692 255.268841 
L 194.017615 254.24276 
L 195.024538 254.39523 
L 196.031462 254.329297 
L 197.038385 255.079284 
L 198.045309 256.34025 
L 199.052232 255.396586 
L 200.059155 254.75374 
L 201.066079 264.124453 
L 202.073002 270.734225 
L 203.079925 274.385259 
L 204.086849 276.69291 
L 205.093772 256.311405 
L 206.100696 257.415781 
L 207.107619 258.206975 
L 208.114542 256.917163 
L 209.121466 257.510559 
L 210.128389 259.154761 
L 211.135312 258.837459 
L 212.142236 259.954197 
L 213.149159 259.418492 
L 214.156082 261.540707 
L 215.163006 263.164305 
L 216.169929 262.723379 
L 217.176853 262.002238 
L 218.183776 263.419795 
L 219.190699 266.283755 
L 220.197623 266.967808 
L 221.204546 268.484265 
L 222.211469 270.272695 
L 223.218393 269.963634 
L 224.225316 270.111983 
L 225.23224 269.312547 
L 226.239163 270.775433 
L 227.246086 269.246614 
L 228.25301 272.267165 
L 229.259933 273.16138 
L 230.266856 272.258923 
L 231.27378 272.5515 
L 232.280703 273.239675 
L 233.287627 276.734118 
L 234.29455 275.996494 
L 235.301473 277.109112 
L 236.308397 277.916789 
L 237.31532 279.515662 
L 238.322243 280.471689 
L 239.329167 280.615917 
L 240.33609 282.569179 
L 241.343014 281.147501 
L 242.349937 281.180468 
L 243.35686 282.663958 
L 244.363784 283.216146 
L 245.370707 283.636468 
L 246.37763 284.341126 
L 247.384554 284.658428 
L 248.391477 285.915273 
L 249.3984 286.224334 
L 250.405324 285.49083 
L 252.419171 288.363032 
L 253.426094 289.83416 
L 254.433017 292.063516 
L 255.439941 292.44263 
L 256.446864 292.566254 
L 257.453787 291.869838 
L 258.460711 294.498912 
L 259.467634 295.867019 
L 260.474558 297.605999 
L 261.481481 297.626604 
L 262.488404 296.052456 
L 263.495328 298.545543 
L 264.502251 300.391664 
L 265.509174 301.817463 
L 266.516098 301.273517 
L 267.523021 301.928725 
L 268.529945 303.787208 
L 269.536868 301.916362 
L 270.543791 300.31749 
L 272.557638 300.947973 
L 273.564561 300.581221 
L 274.571485 299.913651 
L 275.578408 300.391664 
L 276.585332 298.207637 
L 277.592255 298.463127 
L 278.599178 298.850483 
L 279.606102 299.39855 
L 281.619948 299.855959 
L 282.626872 300.387543 
L 283.633795 300.37106 
L 284.640718 302.122403 
L 285.647642 303.638859 
L 286.654565 304.541316 
L 287.661489 304.706148 
L 288.668412 304.471262 
L 289.675335 305.011087 
L 290.682259 301.450711 
L 291.689182 300.659517 
L 292.696105 300.956215 
L 293.703029 299.184268 
L 294.709952 299.184268 
L 295.716876 287.983918 
L 296.723799 289.772348 
L 297.730722 287.015529 
L 298.737646 288.433086 
L 299.744569 291.956375 
L 300.751492 290.889086 
L 301.758416 290.843757 
L 302.765339 292.183019 
L 303.772263 292.088241 
L 304.779186 290.147341 
L 305.786109 290.938536 
L 306.793033 289.916576 
L 307.799956 290.493489 
L 308.806879 290.580026 
L 310.820726 293.967328 
L 311.827649 292.714603 
L 312.834573 292.702241 
L 313.841496 294.610174 
L 314.84842 294.766764 
L 315.855343 294.016778 
L 316.862266 293.579972 
L 317.86919 292.974214 
L 318.876113 288.894616 
L 319.883036 288.012764 
L 320.88996 286.838334 
L 322.903807 287.246294 
L 323.91073 287.646012 
L 324.917653 289.669328 
L 325.924577 289.52922 
L 326.9315 290.641838 
L 327.938423 293.682992 
L 328.945347 293.563489 
L 329.95227 294.461825 
L 330.959194 293.237945 
L 331.966117 293.868429 
L 332.97304 291.651435 
L 333.979964 290.831395 
L 334.986887 292.413784 
L 335.99381 294.453583 
L 337.000734 294.667865 
L 338.007657 294.329959 
L 339.014581 296.909583 
L 340.021504 294.074469 
L 341.028427 293.736563 
L 342.035351 293.790133 
L 343.042274 297.980993 
L 344.049197 299.926013 
L 345.056121 301.302362 
L 346.063044 303.193812 
L 347.069967 306.869571 
L 348.076891 307.108578 
L 349.083814 308.950578 
L 350.090738 310.405222 
L 351.097661 310.710162 
L 352.104584 311.752726 
L 353.111508 313.734833 
L 354.118431 312.259585 
L 355.125354 314.530149 
L 356.132278 312.28843 
L 357.139201 318.428431 
L 358.146125 319.545169 
L 360.159971 325.07117 
L 361.166895 323.958552 
L 362.173818 324.898096 
L 363.180741 327.082123 
L 364.187665 328.582097 
L 365.194588 329.641144 
L 366.201512 330.18509 
L 367.208435 331.062822 
L 368.215358 330.481788 
L 369.222282 331.689184 
L 370.229205 334.079251 
L 371.236128 334.314137 
L 373.249975 335.224835 
L 374.256899 335.933614 
L 375.263822 333.10262 
L 376.270745 331.903466 
L 377.277669 334.029802 
L 378.284592 333.902057 
L 379.291515 335.208352 
L 380.298439 335.838836 
L 381.305362 333.749587 
L 382.312285 334.845721 
L 383.319209 334.895171 
L 384.326132 334.433641 
L 385.333056 332.599882 
L 386.339979 334.462486 
L 387.346902 335.735815 
L 388.353826 332.834768 
L 389.360749 326.381586 
L 390.367672 322.986042 
L 391.374596 318.317169 
L 392.381519 316.594673 
L 393.388443 316.281491 
L 394.395366 318.7787 
L 395.402289 322.953076 
L 396.409213 323.208566 
L 397.416136 325.462647 
L 399.429983 326.060163 
L 400.436906 325.6316 
L 401.44383 323.216807 
L 402.450753 318.865237 
L 403.457676 317.966901 
L 404.4646 322.475062 
L 406.478446 325.953022 
L 407.48537 324.770351 
L 408.492293 319.887196 
L 410.50614 320.208619 
L 411.513063 323.810203 
L 412.519987 325.829398 
L 413.52691 324.832163 
L 414.533833 320.010821 
L 415.540757 316.396874 
L 416.54768 316.965545 
L 418.561527 302.299597 
L 419.56845 299.241959 
L 420.575374 297.111503 
L 421.582297 298.524939 
L 423.596144 302.118282 
L 424.603067 300.568859 
L 425.60999 300.795503 
L 426.616914 295.401368 
L 427.623837 287.889139 
L 428.630761 283.364495 
L 429.637684 282.832911 
L 430.644607 282.886481 
L 431.651531 285.185891 
L 432.658454 290.382227 
L 434.672301 291.503086 
L 435.679224 287.242173 
L 436.686148 278.930508 
L 438.699994 270.651809 
L 439.706918 269.403205 
L 440.713841 265.467835 
L 441.720764 260.910224 
L 442.727688 263.465124 
L 443.734611 265.199983 
L 444.741534 268.912829 
L 445.748458 269.036453 
L 446.755381 275.246507 
L 447.762305 271.620198 
L 449.776151 258.532519 
L 450.783075 258.404774 
L 451.789998 258.528398 
L 452.796921 262.463768 
L 453.803845 263.967862 
L 454.810768 263.741218 
L 455.817692 260.040734 
L 456.824615 254.720774 
L 458.838462 226.542704 
L 459.845385 227.943778 
L 460.852308 223.538636 
L 461.859232 232.085188 
L 462.866155 237.557618 
L 464.880002 246.953055 
L 465.886925 252.169995 
L 466.893849 253.42272 
L 467.900772 255.318291 
L 468.907695 263.300291 
L 469.914619 266.877151 
L 471.928466 272.423755 
L 472.935389 276.165447 
L 473.942312 277.587125 
L 474.949236 279.206602 
L 475.956159 282.515609 
L 476.963082 284.600736 
L 477.970006 285.107596 
L 478.976929 286.034777 
L 479.983852 288.412482 
L 480.990776 289.150106 
L 481.997699 290.167945 
L 483.004623 293.386294 
L 484.011546 294.634899 
L 486.025393 296.518107 
L 487.032316 296.991999 
L 488.039239 298.801033 
L 489.046163 300.078483 
L 490.053086 301.590819 
L 491.06001 302.625141 
L 493.073856 303.44106 
L 494.08078 304.805047 
L 495.087703 305.616846 
L 496.094626 307.289893 
L 497.10155 308.418994 
L 498.108473 310.112645 
L 500.12232 311.134605 
L 501.129243 312.304914 
L 503.14309 313.545276 
L 504.150013 314.377679 
L 505.156937 315.004041 
L 507.170784 315.337827 
L 508.177707 316.47929 
L 509.18463 316.874887 
L 512.2054 319.112485 
L 513.212324 319.384458 
L 514.219247 319.829505 
L 515.22617 320.089116 
L 516.233094 321.049264 
L 518.246941 322.347317 
L 519.253864 322.82121 
L 521.267711 323.253895 
L 522.274634 324.082177 
L 523.281557 324.366512 
L 524.288481 325.005237 
L 525.295404 325.503855 
L 526.302328 326.806029 
L 527.309251 327.288164 
L 528.316174 327.498325 
L 530.330021 329.088956 
L 531.336944 330.407613 
L 532.343868 331.20705 
L 533.350791 331.598526 
L 535.364638 331.808687 
L 536.371561 332.752352 
L 537.378485 333.123225 
L 538.385408 334.017439 
L 539.392331 335.373184 
L 540.399255 335.983064 
L 542.413101 336.494044 
L 543.420025 337.557212 
L 544.426948 337.787977 
L 547.447718 339.881346 
L 549.461565 340.145078 
L 550.468488 341.084621 
L 551.475412 341.418407 
L 553.489259 342.35795 
L 554.496182 342.96783 
L 555.503105 343.210957 
L 556.510029 343.301615 
L 557.516952 343.915615 
L 558.523875 344.356541 
L 559.530799 345.057078 
L 560.537722 345.605145 
L 561.544646 346.008984 
L 563.558492 346.416944 
L 564.565416 346.969132 
L 565.572339 347.043306 
L 566.579262 347.26583 
L 567.586186 347.838622 
L 570.606956 348.164166 
L 571.613879 349.153159 
L 573.627726 349.396287 
L 574.634649 349.907266 
L 577.655419 350.138032 
L 580.67619 351.283616 
L 581.683113 351.646246 
L 583.69696 352.025361 
L 584.703883 352.136622 
L 585.710806 352.449804 
L 586.71773 352.952542 
L 588.731577 353.537696 
L 589.7385 353.892086 
L 591.752347 354.085764 
L 592.75927 354.650314 
L 596.786964 355.581616 
L 598.80081 355.717603 
L 599.807734 356.16265 
L 600.814657 356.224462 
L 602.828504 357.040381 
L 604.842351 357.267026 
L 605.849274 357.312354 
L 606.856197 357.827455 
L 612.897737 359.010126 
L 613.904661 359.067818 
L 614.911584 359.471657 
L 617.932354 360.10214 
L 619.946201 360.320543 
L 621.960048 361.004596 
L 622.966971 361.070529 
L 623.973895 361.297174 
L 624.980818 361.676288 
L 626.994665 361.766945 
L 628.001588 362.005952 
L 630.015435 362.108972 
L 635.050052 362.446878 
L 636.056975 362.879563 
L 640.084668 363.600704 
L 641.091592 363.625429 
L 643.105439 364.49904 
L 644.112362 364.589697 
L 646.126209 364.948208 
L 648.140055 364.968812 
L 649.146979 365.249026 
L 650.153902 365.352047 
L 652.167749 365.895993 
L 656.195442 366.163845 
L 659.216213 366.365765 
L 660.223136 366.683067 
L 664.250829 366.864382 
L 667.2716 367.325912 
L 670.29237 367.424812 
L 671.299293 367.622611 
L 673.31314 367.845134 
L 674.320063 368.034691 
L 676.33391 368.112986 
L 678.347757 368.269577 
L 687.410067 369.159671 
L 688.41699 369.332745 
L 690.430837 369.361591 
L 695.465454 369.987953 
L 697.479301 370.041524 
L 710.569304 371.195349 
L 713.590075 371.327215 
L 715.603921 371.689846 
L 717.617768 371.805228 
L 719.631615 371.945336 
L 721.645462 372.126651 
L 725.673155 372.209067 
L 727.687002 372.328571 
L 728.693925 372.340933 
L 730.707772 372.489282 
L 734.735465 372.542853 
L 742.790852 372.62939 
L 746.818546 372.703564 
L 817.303182 372.802463 
L 817.303182 372.802463 
" clip-path="url(#pf14053e1b3)" style="fill: none; stroke: #2ca02c; stroke-width: 1.8; stroke-linecap: square"/>
   </g>
   <g id="line2d_31">
    <path d="M 466.893849 390.04 
L 466.893849 215.61 
" clip-path="url(#pf14053e1b3)" style="fill: none; stroke-dasharray: 1,1.65; stroke-dashoffset: 0; stroke: #555555; stroke-opacity: 0.8"/>
   </g>
   <g id="patch_15">
    <path d="M 63.47 390.04 
L 63.47 215.61 
" style="fill: none; stroke: #000000; stroke-width: 0.8; stroke-linejoin: miter; stroke-linecap: square"/>
   </g>
   <g id="patch_16">
    <path d="M 853.2 390.04 
L 853.2 215.61 
" style="fill: none; stroke: #000000; stroke-width: 0.8; stroke-linejoin: miter; stroke-linecap: square"/>
   </g>
   <g id="patch_17">
    <path d="M 63.47 390.04 
L 853.2 390.04 
" style="fill: none; stroke: #000000; stroke-width: 0.8; stroke-linejoin: miter; stroke-linecap: square"/>
   </g>
   <g id="patch_18">
    <path d="M 63.47 215.61 
L 853.2 215.61 
" style="fill: none; stroke: #000000; stroke-width: 0.8; stroke-linejoin: miter; stroke-linecap: square"/>
   </g>
   <g id="text_28">
    <!--  created_end  -->
    <g style="fill: #555555" transform="translate(466.893849 222.448594) scale(0.09 -0.09)">
     <defs>
      <path id="DejaVuSans-5f" d="M 3263 -1063 
L 3263 -1509 
L -63 -1509 
L -63 -1063 
L 3263 -1063 
z
" transform="scale(0.015625)"/>
     </defs>
     <use xlink:href="#DejaVuSans-20"/>
     <use xlink:href="#DejaVuSans-63" transform="translate(31.787109 0)"/>
     <use xlink:href="#DejaVuSans-72" transform="translate(86.767578 0)"/>
     <use xlink:href="#DejaVuSans-65" transform="translate(125.630859 0)"/>
     <use xlink:href="#DejaVuSans-61" transform="translate(187.154297 0)"/>
     <use xlink:href="#DejaVuSans-74" transform="translate(248.433594 0)"/>
     <use xlink:href="#DejaVuSans-65" transform="translate(287.642578 0)"/>
     <use xlink:href="#DejaVuSans-64" transform="translate(349.166016 0)"/>
     <use xlink:href="#DejaVuSans-5f" transform="translate(412.642578 0)"/>
     <use xlink:href="#DejaVuSans-65" transform="translate(462.642578 0)"/>
     <use xlink:href="#DejaVuSans-6e" transform="translate(524.166016 0)"/>
     <use xlink:href="#DejaVuSans-64" transform="translate(587.544922 0)"/>
     <use xlink:href="#DejaVuSans-20" transform="translate(651.021484 0)"/>
    </g>
   </g>
   <g id="text_29">
    <!-- pre-mismatch -->
    <g style="fill: #333333" transform="translate(99.366818 236.402994) scale(0.09 -0.09)">
     <use xlink:href="#DejaVuSans-70"/>
     <use xlink:href="#DejaVuSans-72" transform="translate(63.476562 0)"/>
     <use xlink:href="#DejaVuSans-65" transform="translate(102.339844 0)"/>
     <use xlink:href="#DejaVuSans-2d" transform="translate(163.863281 0)"/>
     <use xlink:href="#DejaVuSans-6d" transform="translate(199.947266 0)"/>
     <use xlink:href="#DejaVuSans-69" transform="translate(297.359375 0)"/>
     <use xlink:href="#DejaVuSans-73" transform="translate(325.142578 0)"/>
     <use xlink:href="#DejaVuSans-6d" transform="translate(377.242188 0)"/>
     <use xlink:href="#DejaVuSans-61" transform="translate(474.654297 0)"/>
     <use xlink:href="#DejaVuSans-74" transform="translate(535.933594 0)"/>
     <use xlink:href="#DejaVuSans-63" transform="translate(575.142578 0)"/>
     <use xlink:href="#DejaVuSans-68" transform="translate(630.123047 0)"/>
    </g>
   </g>
   <g id="text_30">
    <!-- mismatch + buildup -->
    <g style="fill: #333333" transform="translate(112.456822 236.402994) scale(0.09 -0.09)">
     <use xlink:href="#DejaVuSans-6d"/>
     <use xlink:href="#DejaVuSans-69" transform="translate(97.412109 0)"/>
     <use xlink:href="#DejaVuSans-73" transform="translate(125.195312 0)"/>
     <use xlink:href="#DejaVuSans-6d" transform="translate(177.294922 0)"/>
     <use xlink:href="#DejaVuSans-61" transform="translate(274.707031 0)"/>
     <use xlink:href="#DejaVuSans-74" transform="translate(335.986328 0)"/>
     <use xlink:href="#DejaVuSans-63" transform="translate(375.195312 0)"/>
     <use xlink:href="#DejaVuSans-68" transform="translate(430.175781 0)"/>
     <use xlink:href="#DejaVuSans-20" transform="translate(493.554688 0)"/>
     <use xlink:href="#DejaVuSans-2b" transform="translate(525.341797 0)"/>
     <use xlink:href="#DejaVuSans-20" transform="translate(609.130859 0)"/>
     <use xlink:href="#DejaVuSans-62" transform="translate(640.917969 0)"/>
     <use xlink:href="#DejaVuSans-75" transform="translate(704.394531 0)"/>
     <use xlink:href="#DejaVuSans-69" transform="translate(767.773438 0)"/>
     <use xlink:href="#DejaVuSans-6c" transform="translate(795.556641 0)"/>
     <use xlink:href="#DejaVuSans-64" transform="translate(823.339844 0)"/>
     <use xlink:href="#DejaVuSans-75" transform="translate(886.816406 0)"/>
     <use xlink:href="#DejaVuSans-70" transform="translate(950.195312 0)"/>
    </g>
   </g>
   <g id="text_31">
    <!-- unwind / tail -->
    <g style="fill: #333333" transform="translate(460.852308 236.402994) scale(0.09 -0.09)">
     <use xlink:href="#DejaVuSans-75"/>
     <use xlink:href="#DejaVuSans-6e" transform="translate(63.378906 0)"/>
     <use xlink:href="#DejaVuSans-77" transform="translate(126.757812 0)"/>
     <use xlink:href="#DejaVuSans-69" transform="translate(208.544922 0)"/>
     <use xlink:href="#DejaVuSans-6e" transform="translate(236.328125 0)"/>
     <use xlink:href="#DejaVuSans-64" transform="translate(299.707031 0)"/>
     <use xlink:href="#DejaVuSans-20" transform="translate(363.183594 0)"/>
     <use xlink:href="#DejaVuSans-2f" transform="translate(394.970703 0)"/>
     <use xlink:href="#DejaVuSans-20" transform="translate(428.662109 0)"/>
     <use xlink:href="#DejaVuSans-74" transform="translate(460.449219 0)"/>
     <use xlink:href="#DejaVuSans-61" transform="translate(499.658203 0)"/>
     <use xlink:href="#DejaVuSans-69" transform="translate(560.9375 0)"/>
     <use xlink:href="#DejaVuSans-6c" transform="translate(588.720703 0)"/>
    </g>
   </g>
   <g id="legend_2">
    <g id="patch_19">
     <path d="M 69.77 236.020312 
L 133.679844 236.020312 
Q 135.479844 236.020312 135.479844 234.220312 
L 135.479844 221.91 
Q 135.479844 220.11 133.679844 220.11 
L 69.77 220.11 
Q 67.97 220.11 67.97 221.91 
L 67.97 234.220312 
Q 67.97 236.020312 69.77 236.020312 
z
" style="fill: #ffffff; opacity: 0.8; stroke: #cccccc; stroke-linejoin: miter"/>
    </g>
    <g id="line2d_32">
     <path d="M 71.57 227.398594 
L 80.57 227.398594 
L 89.57 227.398594 
" style="fill: none; stroke: #2ca02c; stroke-width: 1.8; stroke-linecap: square"/>
    </g>
    <g id="text_32">
     <!-- backlog -->
     <g transform="translate(96.77 230.548594) scale(0.09 -0.09)">
      <use xlink:href="#DejaVuSans-62"/>
      <use xlink:href="#DejaVuSans-61" transform="translate(63.476562 0)"/>
      <use xlink:href="#DejaVuSans-63" transform="translate(124.755859 0)"/>
      <use xlink:href="#DejaVuSans-6b" transform="translate(179.736328 0)"/>
      <use xlink:href="#DejaVuSans-6c" transform="translate(237.646484 0)"/>
      <use xlink:href="#DejaVuSans-6f" transform="translate(265.429688 0)"/>
      <use xlink:href="#DejaVuSans-67" transform="translate(326.611328 0)"/>
     </g>
    </g>
   </g>
  </g>
 </g>
 <defs>
  <clipPath id="p8bcc71c832">
   <rect x="63.47" y="26.88" width="789.73" height="174.43"/>
  </clipPath>
  <clipPath id="pf14053e1b3">
   <rect x="63.47" y="215.61" width="789.73" height="174.43"/>
  </clipPath>
 </defs>
</svg>
